<?xml version="1.0"?>
<svg x="0px" y="0px" width="60"  viewBox="0 0 1024 1024"  style="fill:#EB3313;" version="1.1" xmlns="http://www.w3.org/2000/svg">
    <path d="M350.33604 502.032998c6.644327 9.651824 9.977235 23.277146 9.977235 40.853453 0 17.822924-3.108804 31.649837-9.326413 41.526789-7.733125 11.582803-19.630083 17.373693-35.723619 17.373693-14.377452 0-25.420973-5.679349-33.142841-17.059538-6.868431-10.078543-10.302647-23.38971-10.302647-39.909965l0-2.559289c0-18.024515 4.287653-32.076556 12.873192-42.155099 7.721869-9.651824 17.486256-14.500249 29.281907-14.500249C330.49311 485.60177 342.614172 491.078505 350.33604 502.032998zM378.652969 605.309152c-14.153348 17.396205-33.468253 26.084075-57.925271 26.084075-21.87317 0-38.60832-7.407714-50.190099-22.199605l0 17.687848L236.418524 626.88147 236.418524 392.604726l36.688597 0 0 90.75191c13.513782-18.22713 30.03506-27.339672 49.551556-27.339672 23.816428 0 42.593074 8.685823 56.31868 26.059516 12.661368 16.297175 18.990516 36.566824 18.990516 60.809971C397.967874 568.43022 391.527185 589.239152 378.652969 605.309152zM813.726949 550.293141l33.782408-0.314155 0 6.756891c0 13.939477-4.500501 25.095561-13.512758 33.468253-9.438976 8.148587-21.773909 12.211113-37.003775 12.211113-8.79941 0-15.555278-2.020006-20.269649-6.105045-4.511757-4.287653-6.756891-9.337669-6.756891-15.129582C769.967306 560.596811 784.54635 550.293141 813.726949 550.293141zM884.198977 626.88147l-34.108842 0 0-21.88545c-6.442736 8.373715-14.477736 14.814404-24.140817 19.304671-11.157107 4.713348-23.592324 7.093559-37.33021 7.093559-17.159822 0-30.785144-4.400217-40.863686-13.19758-10.292414-9.002025-15.44476-21.033036-15.44476-36.050054 0-20.808932 8.149611-36.364209 24.455995-46.645366 13.725606-8.798387 31.851429-13.19758 54.387701-13.19758l36.352953-0.336668 0-3.861958c0-21.661346-11.896958-32.502251-35.713386-32.502251-10.943236 0-19.528775 2.042519-25.745361 6.127558-7.083326 4.511757-11.258415 11.381212-12.548804 20.584827l-36.364209 0c2.570545-20.156062 11.044544-34.858926 25.420973-44.085054 12.233626-8.149611 29.496801-12.211113 51.807946-12.211113 24.668843 0 42.804898 6.104021 54.387701 18.337647 10.292414 10.506285 15.44476 25.948999 15.44476 46.330188l0 106.194624L884.198977 626.88147zM703.3337 490.76435l-37.001729 0 0 93.963045c0 4.084015 0.852414 7.071046 2.581802 9.002025 1.928932 1.928932 4.713348 2.894933 8.361435 2.894933l21.88545 0 0 30.257118-28.002774 0c-14.378475 0-24.995277-3.859911-31.853475-11.582803-6.440689-7.071046-9.651824-17.261129-9.651824-30.571273l0-93.963045-29.931706 0 0-30.257118 29.931706 0 0-38.60832 36.679387-15.130605 0 53.738925 37.001729 0L703.3337 490.76435 703.3337 490.76435zM551.193651 526.162558l-85.600587 0c2.356674-13.311167 6.868431-23.277146 13.512758-29.921473 6.868431-6.868431 16.419971-10.302647 28.64234-10.302647C533.494547 485.938438 547.972283 499.338632 551.193651 526.162558zM477.500255 589.239152c7.083326 8.147564 17.261129 12.211113 30.573319 12.211113 11.155061 0 20.268626-2.558265 27.351951-7.720845 5.364171-4.063549 10.290367-10.82044 14.802124-20.270672l36.677341 0c-3.859911 15.668865-11.580756 28.64234-23.163559 38.944987-15.017018 12.659321-33.468253 18.990516-55.343469 18.990516-24.679076 0-44.309158-7.609305-58.888202-22.850427-15.454994-15.870456-23.175839-37.554314-23.175839-65.00655 0-24.892947 7.29515-45.590338 21.88545-62.110593 14.152325-16.946974 33.6811-25.408693 58.563814-25.408693 27.464515 0 48.372707 9.224082 62.749136 27.653827 13.299911 16.97051 19.954471 40.337707 19.954471 70.169129L464.952474 553.840944C466.23263 569.485249 470.418976 581.291133 477.500255 589.239152zM910.526599 287.768029l-697.393407 0c-27.579125 0-49.937342 22.357194-49.937342 49.937342l0 298.866808L63.537082 736.230947l99.658767 0 747.329726 0c27.579125 0 49.937342-22.358217 49.937342-49.938366L960.462918 337.704348C960.463941 310.1242 938.105724 287.768029 910.526599 287.768029z" />
</svg>