<?xml version="1.0" encoding="utf-8"?>
<svg id="master-artboard" viewBox="0 0 250 80" version="1.1" xmlns="http://www.w3.org/2000/svg" x="0px" y="0px" style="enable-background:new 0 0 1400 980;" width="250px" height="80px"><defs><style id="ee-google-fonts">@import url(https://fonts.googleapis.com/css?family=Holtwood+One+SC:400);</style><radialGradient id="gradient-0" gradientUnits="objectBoundingBox" cx="0.5" cy="0.5" r="0.5">
                <stop offset="0" style="stop-color: #eb3313"/>
                <stop offset="1" style="stop-color: #8d1f0b"/>
              </radialGradient><linearGradient id="gradient-1" gradientUnits="objectBoundingBox" x1="0.5" y1="0" x2="0.5" y2="1" gradientTransform="matrix(0.9999833703041077, 0.028798282146453857, -0.0006693601608276367, 0.5790321826934814, 0.0006777346134185791, 0.40656861662864685)">
                <stop offset="0" style="stop-color: #eb3313"/>
                <stop offset="1" style="stop-color: #8d1f0b"/>
              </linearGradient></defs><rect id="ee-background" x="0" y="0" width="250" height="80" style="fill: white; fill-opacity: 0; pointer-events: none;" transform="matrix(1, 0, 0, 1, 4, 0)"/><path d="M 1.7899999618530273 1.989999771118164 L 17.549999237060547 1.989999771118164 L 17.549999237060547 9.620000839233398 L 15.300000190734863 10.059999465942383 L 15.300000190734863 20.93000030517578 L 17.549999237060547 21.369998931884766 L 17.549999237060547 29 L 1.7899999618530273 29 L 1.7899999618530273 21.369998931884766 L 4.050000190734863 20.93000030517578 L 4.050000190734863 10.059999465942383 L 1.7899999618530273 9.620000839233398 L 1.7899999618530273 1.989999771118164 ZM 34.626041412353516 15.829999923706055 L 34.626041412353516 29 L 21.136043548583984 29 L 21.136043548583984 21.369998931884766 L 23.396041870117188 20.93000030517578 L 23.396041870117188 10.059999465942383 L 21.136043548583984 9.620000839233398 L 21.136043548583984 1.989999771118164 L 34.626041412353516 1.989999771118164 L 40.296043395996094 12.360000610351562 L 45.906044006347656 1.989999771118164 L 59.406044006347656 1.989999771118164 L 59.406044006347656 9.620000839233398 L 57.156044006347656 10.059999465942383 L 57.156044006347656 20.93000030517578 L 59.406044006347656 21.369998931884766 L 59.406044006347656 29 L 45.906044006347656 29 L 45.906044006347656 15.829999923706055 L 40.296043395996094 25.540000915527344 L 34.626041412353516 15.829999923706055 ZM 83.433837890625 1.989999771118164 C 85.13384246826172 2.3500003814697266 86.6638412475586 2.873332977294922 88.02384185791016 3.559999465942383 C 89.38384246826172 4.246665954589844 90.54051208496094 5.123332977294922 91.49384307861328 6.190000534057617 C 92.45384216308594 7.25666618347168 93.18717956542969 8.530000686645508 93.69384765625 10.010000228881836 C 94.2071762084961 11.496665954589844 94.46383666992188 13.220000267028809 94.46383666992188 15.180000305175781 C 94.46383666992188 17.766666412353516 94.03050994873047 19.94333267211914 93.1638412475586 21.709999084472656 C 92.29051208496094 23.476665496826172 91.06717681884766 24.89666748046875 89.49384307861328 25.969999313354492 C 87.9138412475586 27.049999237060547 86.01717376708984 27.8266658782959 83.80384063720703 28.299999237060547 C 81.59050750732422 28.766666412353516 79.14051055908203 29 76.45384216308594 29 L 62.943843841552734 29 L 62.943843841552734 21.369998931884766 L 65.19384002685547 20.93000030517578 L 65.19384002685547 9.40999984741211 L 62.943843841552734 8.969999313354492 L 62.943843841552734 1.989999771118164 L 83.433837890625 1.989999771118164 M 78.17384338378906 20.93000030517578 C 79.42717742919922 20.93000030517578 80.39384460449219 20.790000915527344 81.07384490966797 20.510000228881836 C 81.75384521484375 20.23666763305664 82.2505111694336 19.84666633605957 82.5638427734375 19.34000015258789 C 82.8771743774414 18.84000015258789 83.06050872802734 18.23666763305664 83.11384582519531 17.529998779296875 C 83.16050720214844 16.829999923706055 83.183837890625 16.046667098999023 83.183837890625 15.180000305175781 C 83.183837890625 14.306666374206543 83.16050720214844 13.516666412353516 83.11384582519531 12.809999465942383 C 83.06050872802734 12.10333251953125 82.8771743774414 11.496665954589844 82.5638427734375 10.989999771118164 C 82.2505111694336 10.483333587646484 81.75384521484375 10.093334197998047 81.07384490966797 9.819999694824219 C 80.39384460449219 9.546667098999023 79.42717742919922 9.40999984741211 78.17384338378906 9.40999984741211 L 76.45384216308594 9.40999984741211 L 76.45384216308594 20.93000030517578 L 78.17384338378906 20.93000030517578 ZM 119.48599243164062 1.989999771118164 C 121.33932495117188 2.4300003051757812 122.71932983398438 3.1599998474121094 123.62599182128906 4.180000305175781 C 124.53932189941406 5.200000762939453 124.9959945678711 6.573333740234375 124.9959945678711 8.299999237060547 C 124.9959945678711 9.446666717529297 124.8726577758789 10.40999984741211 124.62599182128906 11.190000534057617 C 124.37932586669922 11.969999313354492 124.06932067871094 12.616666793823242 123.69599151611328 13.130000114440918 C 123.31599426269531 13.636666297912598 122.90599060058594 14.029999732971191 122.46598815917969 14.3100004196167 C 122.02599334716797 14.583333015441895 121.61932373046875 14.783333778381348 121.2459945678711 14.90999984741211 C 120.8726577758789 15.043333053588867 120.55265808105469 15.119999885559082 120.28599548339844 15.140000343322754 C 120.02599334716797 15.166666984558105 119.88932800292969 15.180000305175781 119.87599182128906 15.180000305175781 C 120.33599090576172 15.199999809265137 120.82598876953125 15.25 121.34599304199219 15.329999923706055 C 121.8659896850586 15.416666984558105 122.38265991210938 15.546667098999023 122.89599609375 15.720000267028809 C 123.4159927368164 15.899999618530273 123.9093246459961 16.130001068115234 124.37599182128906 16.40999984741211 C 124.84932708740234 16.689998626708984 125.26265716552734 17.036666870117188 125.6159896850586 17.450000762939453 C 125.97599029541016 17.869998931884766 126.25932312011719 18.366666793823242 126.46598815917969 18.939998626708984 C 126.6793212890625 19.51333236694336 126.78599548339844 20.176666259765625 126.78599548339844 20.93000030517578 C 126.78599548339844 22.07666778564453 126.64265441894531 23.143333435058594 126.35598754882812 24.130001068115234 C 126.06932067871094 25.116666793823242 125.56599426269531 25.969999313354492 124.84599304199219 26.690000534057617 C 124.12599182128906 27.40999984741211 123.14265441894531 27.97333335876465 121.89599609375 28.3799991607666 C 120.65599060058594 28.793333053588867 119.08599090576172 29 117.18598937988281 29 L 96.7659912109375 29 L 96.7659912109375 21.369998931884766 L 99.0159912109375 20.93000030517578 L 99.0159912109375 9.40999984741211 L 96.7659912109375 8.969999313354492 L 96.7659912109375 1.989999771118164 L 119.48599243164062 1.989999771118164 M 115.53599548339844 10.639999389648438 C 115.53599548339844 10.040000915527344 115.43266296386719 9.579999923706055 115.22599029541016 9.260000228881836 C 115.01932525634766 8.933332443237305 114.7459945678711 8.696666717529297 114.40599060058594 8.549999237060547 C 114.06599426269531 8.39666748046875 113.6793212890625 8.30666732788086 113.2459945678711 8.280000686645508 C 112.81266021728516 8.260000228881836 112.3726577758789 8.25 111.92599487304688 8.25 L 110.27599334716797 8.25 L 110.27599334716797 13.289999961853027 L 111.92599487304688 13.289999961853027 C 112.3726577758789 13.289999961853027 112.81266021728516 13.276666641235352 113.2459945678711 13.25 C 113.6793212890625 13.223333358764648 114.06599426269531 13.126667022705078 114.40599060058594 12.959999084472656 C 114.7459945678711 12.793333053588867 115.01932525634766 12.533332824707031 115.22599029541016 12.180000305175781 C 115.43266296386719 11.819999694824219 115.53599548339844 11.30666732788086 115.53599548339844 10.639999389648438 M 115.53599548339844 19.40999984741211 C 115.53599548339844 18.816665649414062 115.43266296386719 18.360000610351562 115.22599029541016 18.040000915527344 C 115.01932525634766 17.726665496826172 114.7459945678711 17.493331909179688 114.40599060058594 17.34000015258789 C 114.06599426269531 17.18666648864746 113.6793212890625 17.100000381469727 113.2459945678711 17.079999923706055 C 112.81266021728516 17.053333282470703 112.3726577758789 17.040000915527344 111.92599487304688 17.040000915527344 L 110.27599334716797 17.040000915527344 L 110.27599334716797 22.09000015258789 L 111.92599487304688 22.09000015258789 C 112.3726577758789 22.09000015258789 112.81266021728516 22.073333740234375 113.2459945678711 22.040000915527344 C 113.6793212890625 22.01333236694336 114.06599426269531 21.91666603088379 114.40599060058594 21.75 C 114.7459945678711 21.59000015258789 115.01932525634766 21.32666778564453 115.22599029541016 20.959999084472656 C 115.43266296386719 20.600000381469727 115.53599548339844 20.083332061767578 115.53599548339844 19.40999984741211 ZM 153.8880157470703 22.25 C 154.68801879882812 22.25 155.43801879882812 22.18000030517578 156.1380157470703 22.040000915527344 C 156.8446807861328 21.906665802001953 157.4946746826172 21.73666763305664 158.0880126953125 21.530000686645508 C 158.6746826171875 21.316665649414062 159.2080078125 21.073333740234375 159.68801879882812 20.799999237060547 C 160.1746826171875 20.53333282470703 160.59800720214844 20.266666412353516 160.9580078125 20 L 163.89801025390625 20 L 163.89801025390625 29 L 140.3780059814453 29 L 140.3780059814453 21.369998931884766 L 142.6380157470703 20.93000030517578 L 142.6380157470703 10.09000015258789 L 140.3780059814453 9.649999618530273 L 140.3780059814453 1.989999771118164 L 163.89801025390625 1.989999771118164 L 163.89801025390625 10.989999771118164 L 161.06800842285156 10.989999771118164 C 160.68801879882812 10.729999542236328 160.2546844482422 10.466667175292969 159.76800537109375 10.200000762939453 C 159.27467346191406 9.926666259765625 158.7246856689453 9.683332443237305 158.11801147460938 9.469999313354492 C 157.51800537109375 9.25 156.86468505859375 9.073333740234375 156.15802001953125 8.940000534057617 C 155.4513397216797 8.80666732788086 154.69467163085938 8.739999771118164 153.8880157470703 8.739999771118164 L 153.8880157470703 13.539999961853027 L 159.1680145263672 12.399999618530273 L 159.1680145263672 18.619998931884766 L 153.8880157470703 17.479999542236328 L 153.8880157470703 22.25 ZM 196.94586181640625 20.939998626708984 L 199.61587524414062 21.369998931884766 L 199.61587524414062 29 L 181.78587341308594 29 L 181.78587341308594 21.369998931884766 L 183.7158660888672 20.939998626708984 L 179.61587524414062 17.810001373291016 L 176.2258758544922 20.939998626708984 L 179.5658721923828 21.369998931884766 L 179.5658721923828 29 L 165.9758758544922 29 L 165.9758758544922 21.369998931884766 L 168.62586975097656 20.939998626708984 L 175.11587524414062 15.140000343322754 L 168.80587768554688 10.040000915527344 L 165.60586547851562 9.620000839233398 L 165.60586547851562 1.989999771118164 L 182.80587768554688 1.989999771118164 L 182.80587768554688 9.620000839233398 L 180.86587524414062 10.040000915527344 L 185.42587280273438 13.350000381469727 L 188.4658660888672 10.040000915527344 L 185.17587280273438 9.620000839233398 L 185.17587280273438 1.989999771118164 L 198.7158660888672 1.989999771118164 L 198.7158660888672 9.620000839233398 L 195.53587341308594 10.040000915527344 L 190.27587890625 15.489999771118164 L 196.94586181640625 20.939998626708984 ZM 201.98635864257812 1.989999771118164 L 217.30636596679688 1.989999771118164 C 219.29969787597656 1.989999771118164 221.02969360351562 2.0799999237060547 222.49636840820312 2.260000228881836 C 223.96302795410156 2.440000534057617 225.21302795410156 2.700000762939453 226.24636840820312 3.0400009155273438 C 227.2730255126953 3.3799991607666016 228.113037109375 3.7966670989990234 228.766357421875 4.290000915527344 C 229.41969299316406 4.783332824707031 229.92970275878906 5.333333969116211 230.29637145996094 5.940000534057617 C 230.66302490234375 6.553333282470703 230.91636657714844 7.223333358764648 231.05636596679688 7.950000762939453 C 231.189697265625 8.676666259765625 231.25636291503906 9.450000762939453 231.25636291503906 10.270000457763672 C 231.25636291503906 11.116666793823242 231.17636108398438 11.906665802001953 231.016357421875 12.639999389648438 C 230.8563690185547 13.380000114440918 230.5663604736328 14.0600004196167 230.1463623046875 14.680000305175781 C 229.7263641357422 15.293333053588867 229.14303588867188 15.84666633605957 228.3963623046875 16.34000015258789 C 227.6497039794922 16.833332061767578 226.69302368164062 17.246665954589844 225.5263671875 17.579999923706055 C 224.3596954345703 17.913333892822266 222.95303344726562 18.170000076293945 221.30636596679688 18.350000381469727 C 219.65969848632812 18.529998779296875 217.72303771972656 18.619998931884766 215.49636840820312 18.619998931884766 L 215.49636840820312 20.93000030517578 L 217.74636840820312 21.369998931884766 L 217.74636840820312 29 L 201.98635864257812 29 L 201.98635864257812 21.369998931884766 L 204.24636840820312 20.93000030517578 L 204.24636840820312 10.059999465942383 L 201.98635864257812 9.620000839233398 L 201.98635864257812 1.989999771118164 M 215.49636840820312 13.789999961853027 C 216.17636108398438 13.789999961853027 216.79637145996094 13.75333309173584 217.3563690185547 13.680000305175781 C 217.90969848632812 13.613333702087402 218.38302612304688 13.463333129882812 218.7763671875 13.229999542236328 C 219.16969299316406 13.00333309173584 219.47303771972656 12.673334121704102 219.68637084960938 12.239999771118164 C 219.89303588867188 11.80666732788086 219.99636840820312 11.219999313354492 219.99636840820312 10.479999542236328 C 219.99636840820312 9.766666412353516 219.89303588867188 9.196666717529297 219.68637084960938 8.770000457763672 C 219.47303771972656 8.336666107177734 219.16969299316406 8.010000228881836 218.7763671875 7.790000915527344 C 218.38302612304688 7.569999694824219 217.90969848632812 7.423334121704102 217.3563690185547 7.350000381469727 C 216.79637145996094 7.276666641235352 216.17636108398438 7.239999771118164 215.49636840820312 7.239999771118164 L 215.49636840820312 13.789999961853027 ZM 247.04800415039062 22.25 C 247.6146697998047 22.25 248.14132690429688 22.18000030517578 248.6280059814453 22.040000915527344 C 249.121337890625 21.906665802001953 249.58132934570312 21.73666763305664 250.00799560546875 21.530000686645508 C 250.42800903320312 21.316665649414062 250.81134033203125 21.073333740234375 251.1580047607422 20.799999237060547 C 251.50466918945312 20.53333282470703 251.80467224121094 20.266666412353516 252.05799865722656 20 L 254.9980010986328 20 L 254.9980010986328 29 L 233.53799438476562 29 L 233.53799438476562 21.369998931884766 L 235.79800415039062 20.93000030517578 L 235.79800415039062 10.059999465942383 L 233.53799438476562 9.620000839233398 L 233.53799438476562 1.989999771118164 L 249.29800415039062 1.989999771118164 L 249.29800415039062 9.620000839233398 L 247.04800415039062 10.059999465942383 L 247.04800415039062 22.25 ZM 272.2377624511719 29.31999969482422 C 270.8044128417969 29.31999969482422 269.42108154296875 29.229999542236328 268.0877380371094 29.049999237060547 C 266.7610778808594 28.876667022705078 265.514404296875 28.549999237060547 264.3477478027344 28.06999969482422 C 263.18109130859375 27.59000015258789 262.11773681640625 26.969999313354492 261.1577453613281 26.209999084472656 C 260.1910705566406 25.456666946411133 259.3644104003906 24.549999237060547 258.6777648925781 23.489999771118164 C 257.9844055175781 22.42333221435547 257.44775390625 21.203332901000977 257.0677490234375 19.829999923706055 C 256.687744140625 18.450000762939453 256.49774169921875 16.899999618530273 256.49774169921875 15.180000305175781 C 256.49774169921875 13.5600004196167 256.6844177246094 12.100000381469727 257.0577392578125 10.799999237060547 C 257.43109130859375 9.49333381652832 257.957763671875 8.336666107177734 258.63775634765625 7.329999923706055 C 259.3177490234375 6.323333740234375 260.1344299316406 5.456666946411133 261.0877380371094 4.729999542236328 C 262.0477600097656 4.003334045410156 263.111083984375 3.406665802001953 264.2777404785156 2.940000534057617 C 265.4444274902344 2.479999542236328 266.69775390625 2.1399993896484375 268.0377502441406 1.9200000762939453 C 269.3844299316406 1.6933326721191406 270.784423828125 1.5799999237060547 272.2377624511719 1.5799999237060547 C 273.69110107421875 1.5799999237060547 275.0910949707031 1.6933326721191406 276.437744140625 1.9200000762939453 C 277.784423828125 2.1399993896484375 279.04443359375 2.4833335876464844 280.2177429199219 2.950000762939453 C 281.3910827636719 3.4233341217041016 282.45440673828125 4.023332595825195 283.4077453613281 4.75 C 284.36773681640625 5.476667404174805 285.187744140625 6.343334197998047 285.86773681640625 7.350000381469727 C 286.5477600097656 8.356666564941406 287.0744323730469 9.510000228881836 287.44775390625 10.809999465942383 C 287.8210754394531 12.10333251953125 288.00775146484375 13.5600004196167 288.00775146484375 15.180000305175781 C 288.00775146484375 17.713333129882812 287.59442138671875 19.883333206176758 286.76776123046875 21.690000534057617 C 285.94110107421875 23.503334045410156 284.8144226074219 24.983333587646484 283.38775634765625 26.130001068115234 C 281.95440673828125 27.28333282470703 280.2810974121094 28.10333251953125 278.36773681640625 28.59000015258789 C 276.4610900878906 29.0766658782959 274.4177551269531 29.31999969482422 272.2377624511719 29.31999969482422 M 272.2377624511719 9.620000839233398 C 271.4844055175781 9.620000839233398 270.85443115234375 9.716667175292969 270.3477478027344 9.90999984741211 C 269.83441162109375 10.10333251953125 269.41107177734375 10.356666564941406 269.0777587890625 10.670000076293945 C 268.7444152832031 10.989999771118164 268.4877624511719 11.350000381469727 268.3077392578125 11.75 C 268.1344299316406 12.143333435058594 268.0044250488281 12.546667098999023 267.9177551269531 12.959999084472656 C 267.8310852050781 13.373332977294922 267.7810974121094 13.773333549499512 267.76776123046875 14.15999984741211 C 267.7544250488281 14.546667098999023 267.74774169921875 14.886666297912598 267.74774169921875 15.180000305175781 C 267.74774169921875 15.473333358764648 267.7544250488281 15.813333511352539 267.76776123046875 16.200000762939453 C 267.7810974121094 16.586666107177734 267.8310852050781 16.98666763305664 267.9177551269531 17.399999618530273 C 268.0044250488281 17.81999969482422 268.1344299316406 18.233333587646484 268.3077392578125 18.639999389648438 C 268.4877624511719 19.053333282470703 268.7444152832031 19.420000076293945 269.0777587890625 19.739999771118164 C 269.41107177734375 20.060001373291016 269.83441162109375 20.31999969482422 270.3477478027344 20.520000457763672 C 270.85443115234375 20.720001220703125 271.4844055175781 20.81999969482422 272.2377624511719 20.81999969482422 C 272.9844055175781 20.81999969482422 273.6144104003906 20.720001220703125 274.12774658203125 20.520000457763672 C 274.6344299316406 20.31999969482422 275.0577392578125 20.060001373291016 275.39776611328125 19.739999771118164 C 275.7377624511719 19.420000076293945 275.99774169921875 19.053333282470703 276.1777648925781 18.639999389648438 C 276.3644104003906 18.233333587646484 276.49774169921875 17.81999969482422 276.5777587890625 17.399999618530273 C 276.6577453613281 16.98666763305664 276.707763671875 16.586666107177734 276.7277526855469 16.200000762939453 C 276.74774169921875 15.813333511352539 276.75775146484375 15.473333358764648 276.75775146484375 15.180000305175781 C 276.75775146484375 14.886666297912598 276.74774169921875 14.546667098999023 276.7277526855469 14.15999984741211 C 276.707763671875 13.773333549499512 276.6577453613281 13.373332977294922 276.5777587890625 12.959999084472656 C 276.49774169921875 12.546667098999023 276.3644104003906 12.143333435058594 276.1777648925781 11.75 C 275.99774169921875 11.350000381469727 275.7377624511719 10.989999771118164 275.39776611328125 10.670000076293945 C 275.0577392578125 10.356666564941406 274.6344299316406 10.10333251953125 274.12774658203125 9.90999984741211 C 273.6144104003906 9.716667175292969 272.9844055175781 9.620000839233398 272.2377624511719 9.620000839233398 ZM 319.9291687011719 29 L 308.7491455078125 29 C 308.39581298828125 28.33333396911621 308.0325012207031 27.623332977294922 307.6591491699219 26.869998931884766 C 307.2791748046875 26.123332977294922 306.91583251953125 25.343334197998047 306.56915283203125 24.530000686645508 C 306.2158203125 23.72333335876465 305.8858337402344 22.886667251586914 305.57916259765625 22.020000457763672 C 305.2724914550781 21.15333366394043 305.0158386230469 20.260000228881836 304.8091735839844 19.34000015258789 L 304.18914794921875 19.34000015258789 L 304.18914794921875 29 L 290.6791687011719 29 L 290.6791687011719 21.369998931884766 L 292.93914794921875 20.93000030517578 L 292.93914794921875 10.059999465942383 L 290.6791687011719 9.620000839233398 L 290.6791687011719 1.989999771118164 L 305.9991455078125 1.989999771118164 C 308.0325012207031 1.989999771118164 309.78582763671875 2.083333969116211 311.2591552734375 2.270000457763672 C 312.7391662597656 2.456666946411133 313.99249267578125 2.7233333587646484 315.0191650390625 3.0699996948242188 C 316.052490234375 3.416666030883789 316.88916015625 3.8366661071777344 317.5291748046875 4.329999923706055 C 318.1691589355469 4.829999923706055 318.6691589355469 5.393333435058594 319.0291748046875 6.020000457763672 C 319.38250732421875 6.64666748046875 319.62249755859375 7.333333969116211 319.7491455078125 8.079999923706055 C 319.8691711425781 8.826665878295898 319.9291687011719 9.616666793823242 319.9291687011719 10.450000762939453 C 319.9291687011719 11.290000915527344 319.8491516113281 12.053333282470703 319.68914794921875 12.739999771118164 C 319.53582763671875 13.426666259765625 319.2591552734375 14.056666374206543 318.8591613769531 14.630000114440918 C 318.45916748046875 15.203332901000977 317.9125061035156 15.729999542236328 317.2191467285156 16.209999084472656 C 316.5325012207031 16.683334350585938 315.65582275390625 17.130001068115234 314.58917236328125 17.549999237060547 C 314.8091735839844 18.016666412353516 315.1424865722656 18.566665649414062 315.58917236328125 19.200000762939453 C 316.03582763671875 19.82666778564453 316.5158386230469 20.463333129882812 317.0291748046875 21.110000610351562 C 317.54248046875 21.76333236694336 318.0625 22.39666748046875 318.58917236328125 23.010000228881836 C 319.1091613769531 23.623332977294922 319.5558166503906 24.149999618530273 319.9291687011719 24.59000015258789 L 319.9291687011719 29 M 304.18914794921875 14.15999984741211 C 304.8691711425781 14.15999984741211 305.4891662597656 14.130000114440918 306.0491638183594 14.069999694824219 C 306.60247802734375 14.010000228881836 307.0758361816406 13.873332977294922 307.4691467285156 13.65999984741211 C 307.86248779296875 13.453332901000977 308.16583251953125 13.143333435058594 308.379150390625 12.729999542236328 C 308.5858154296875 12.323333740234375 308.68914794921875 11.773332595825195 308.68914794921875 11.079999923706055 C 308.68914794921875 10.399999618530273 308.5858154296875 9.856666564941406 308.379150390625 9.450000762939453 C 308.16583251953125 9.043333053588867 307.86248779296875 8.729999542236328 307.4691467285156 8.510000228881836 C 307.0758361816406 8.290000915527344 306.60247802734375 8.143333435058594 306.0491638183594 8.069999694824219 C 305.4891662597656 8.003334045410156 304.8691711425781 7.969999313354492 304.18914794921875 7.969999313354492 L 304.18914794921875 14.15999984741211 ZM 336.5498046875 22.25 C 337.3498229980469 22.25 338.0998229980469 22.18000030517578 338.7998046875 22.040000915527344 C 339.5064697265625 21.906665802001953 340.156494140625 21.73666763305664 340.74981689453125 21.530000686645508 C 341.33648681640625 21.316665649414062 341.86981201171875 21.073333740234375 342.3498229980469 20.799999237060547 C 342.83648681640625 20.53333282470703 343.25982666015625 20.266666412353516 343.61981201171875 20 L 346.559814453125 20 L 346.559814453125 29 L 323.0398254394531 29 L 323.0398254394531 21.369998931884766 L 325.2998046875 20.93000030517578 L 325.2998046875 10.09000015258789 L 323.0398254394531 9.649999618530273 L 323.0398254394531 1.989999771118164 L 346.559814453125 1.989999771118164 L 346.559814453125 10.989999771118164 L 343.7298278808594 10.989999771118164 C 343.3498229980469 10.729999542236328 342.9164733886719 10.466667175292969 342.4298095703125 10.200000762939453 C 341.9364929199219 9.926666259765625 341.386474609375 9.683332443237305 340.7798156738281 9.469999313354492 C 340.1798095703125 9.25 339.5264892578125 9.073333740234375 338.81982421875 8.940000534057617 C 338.1131591796875 8.80666732788086 337.3564758300781 8.739999771118164 336.5498046875 8.739999771118164 L 336.5498046875 13.539999961853027 L 341.8298034667969 12.399999618530273 L 341.8298034667969 18.619998931884766 L 336.5498046875 17.479999542236328 L 336.5498046875 22.25 ZM 378.54766845703125 29 L 367.36767578125 29 C 367.0143127441406 28.33333396911621 366.6510009765625 27.623332977294922 366.27764892578125 26.869998931884766 C 365.89764404296875 26.123332977294922 365.5343322753906 25.343334197998047 365.1876525878906 24.530000686645508 C 364.8343200683594 23.72333335876465 364.50433349609375 22.886667251586914 364.1976623535156 22.020000457763672 C 363.8909912109375 21.15333366394043 363.63433837890625 20.260000228881836 363.42767333984375 19.34000015258789 L 362.8076477050781 19.34000015258789 L 362.8076477050781 29 L 349.29766845703125 29 L 349.29766845703125 21.369998931884766 L 351.5576477050781 20.93000030517578 L 351.5576477050781 10.059999465942383 L 349.29766845703125 9.620000839233398 L 349.29766845703125 1.989999771118164 L 364.61767578125 1.989999771118164 C 366.6510009765625 1.989999771118164 368.4043273925781 2.083333969116211 369.8776550292969 2.270000457763672 C 371.357666015625 2.456666946411133 372.6109924316406 2.7233333587646484 373.6376647949219 3.0699996948242188 C 374.6709899902344 3.416666030883789 375.5076599121094 3.8366661071777344 376.14764404296875 4.329999923706055 C 376.78765869140625 4.829999923706055 377.28765869140625 5.393333435058594 377.64764404296875 6.020000457763672 C 378.0010070800781 6.64666748046875 378.2409973144531 7.333333969116211 378.36767578125 8.079999923706055 C 378.4876708984375 8.826665878295898 378.54766845703125 9.616666793823242 378.54766845703125 10.450000762939453 C 378.54766845703125 11.290000915527344 378.4676513671875 12.053333282470703 378.3076477050781 12.739999771118164 C 378.1543273925781 13.426666259765625 377.8776550292969 14.056666374206543 377.4776611328125 14.630000114440918 C 377.0776672363281 15.203332901000977 376.531005859375 15.729999542236328 375.837646484375 16.209999084472656 C 375.1510009765625 16.683334350585938 374.2743225097656 17.130001068115234 373.2076721191406 17.549999237060547 C 373.42767333984375 18.016666412353516 373.760986328125 18.566665649414062 374.2076721191406 19.200000762939453 C 374.6543273925781 19.82666778564453 375.13433837890625 20.463333129882812 375.64764404296875 21.110000610351562 C 376.1609802246094 21.76333236694336 376.6809997558594 22.39666748046875 377.2076721191406 23.010000228881836 C 377.7276611328125 23.623332977294922 378.17431640625 24.149999618530273 378.54766845703125 24.59000015258789 L 378.54766845703125 29 M 362.8076477050781 14.15999984741211 C 363.4876708984375 14.15999984741211 364.107666015625 14.130000114440918 364.66766357421875 14.069999694824219 C 365.22100830078125 14.010000228881836 365.6943359375 13.873332977294922 366.087646484375 13.65999984741211 C 366.4809875488281 13.453332901000977 366.7843322753906 13.143333435058594 366.9976501464844 12.729999542236328 C 367.2043151855469 12.323333740234375 367.3076477050781 11.773332595825195 367.3076477050781 11.079999923706055 C 367.3076477050781 10.399999618530273 367.2043151855469 9.856666564941406 366.9976501464844 9.450000762939453 C 366.7843322753906 9.043333053588867 366.4809875488281 8.729999542236328 366.087646484375 8.510000228881836 C 365.6943359375 8.290000915527344 365.22100830078125 8.143333435058594 364.66766357421875 8.069999694824219 C 364.107666015625 8.003334045410156 363.4876708984375 7.969999313354492 362.8076477050781 7.969999313354492 L 362.8076477050781 14.15999984741211 Z" transform="matrix(0.6581383347511292, 0, 0, 1.3649693727493286, -0.15398025512695312, 19.456497192382812)" style="fill: rgb(235, 51, 19); white-space: pre; color: rgb(235, 51, 19); stroke: rgb(4, 1, 0); paint-order: stroke; stroke-width: 0; fill-opacity: 1; stroke-opacity: 0; -webkit-text-stroke: 0px rgb(4, 1, 0);"/></svg>