<?xml version="1.0" encoding="utf-8"?>
<svg id="master-artboard" viewBox="0 0 80 80" version="1.1" xmlns="http://www.w3.org/2000/svg" x="0px" y="0px" style="enable-background:new 0 0 1400 980;" width="80px" height="80px"><rect id="ee-background" x="0" y="0" width="80" height="80" style="fill: white; fill-opacity: 0; pointer-events: none;"/><g transform="matrix(0.41666665673255915, 0, 0, 0.4166666269302368, -0.10588116445467222, 0.01121405745003301)"><g fill="none" fill-rule="nonzero" stroke="none" stroke-width="1" stroke-linecap="butt" stroke-linejoin="miter" stroke-miterlimit="10" stroke-dasharray="" stroke-dashoffset="0" font-family="none" font-weight="none" font-size="none" text-anchor="none" style="mix-blend-mode: normal">
                <path d="M0,192v-192h192v192z" fill="none"/>
                <g fill="#eb3313">
                    <g id="surface1">
                        <path d="M19.2,42.24c-10.545,0 -19.2,8.655 -19.2,19.2v61.44c0,10.545 8.655,19.2 19.2,19.2h153.6c10.545,0 19.2,-8.655 19.2,-19.2v-61.44c0,-10.545 -8.655,-19.2 -19.2,-19.2zM19.2,49.92h153.6c6.36,0 11.52,5.16 11.52,11.52v61.44c0,6.36 -5.16,11.52 -11.52,11.52h-153.6c-6.36,0 -11.52,-5.16 -11.52,-11.52v-61.44c0,-6.36 5.16,-11.52 11.52,-11.52zM32.64,64.92v51h12.24v-51zM51.48,64.92v51h11.16v-28.8l4.92,28.8h7.68l5.4,-28.8v28.8h10.32v-51h-16.8l-2.76,24.12l-4.2,-24.12zM131.28,64.92v51h10.44c0,0 0.795,-3.03 1.56,-2.64c0.765,0.39 5.325,2.28 8.4,2.28c3.075,0 4.23,-0.33 5.76,-0.72c1.92,-1.155 2.64,-2.73 2.64,-5.04v-29.52c0.39,-4.605 -4.23,-6.93 -7.68,-7.32c-3.45,0 -6.87,1.95 -8.4,3.48v-11.52zM97.56,65.28v51.12h13.8c8.07,0 10.8,-0.84 12.72,-2.76c1.92,-1.92 3.36,-4.245 3.36,-7.32v-30.72c0,-4.23 -1.05,-6.51 -3.36,-8.04c-2.31,-1.53 -4.275,-2.28 -12.72,-2.28zM109.8,72.96c2.31,0 4.68,-0.405 4.68,2.28v30c0,2.31 -2.76,1.92 -4.68,1.92zM145.92,79.44c1.155,0 1.56,0.765 1.56,1.92l0.36,25.8c0,1.155 -0.765,2.28 -1.92,2.28c-1.155,0 -1.92,-0.75 -1.92,-2.28v-25.8c0,-1.155 0.765,-1.92 1.92,-1.92z">
                        </path>
                    </g>
                </g>
            </g></g></svg>