<?xml version="1.0" encoding="utf-8"?>
<svg id="master-artboard" viewBox="0 0 250 80" version="1.1" xmlns="http://www.w3.org/2000/svg" x="0px" y="0px" style="enable-background:new 0 0 1400 980;" width="250px" height="80px"><defs><style id="ee-google-fonts">@import url(https://fonts.googleapis.com/css?family=Bungee:400);</style><radialGradient id="gradient-0" gradientUnits="objectBoundingBox" cx="0.5" cy="0.5" r="0.5">
                <stop offset="0" style="stop-color: #eb3313"/>
                <stop offset="1" style="stop-color: #8d1f0b"/>
              </radialGradient></defs><rect id="ee-background" x="0" y="0" width="250" height="80" style="fill: white; fill-opacity: 0; pointer-events: none;" transform="matrix(1, 0, 0, 1, 4, 0)"/><path d="M 3.2100000381469727 45 C 2.75 45 2.4200000762939453 44.89666748046875 2.2200000286102295 44.689998626708984 C 2.013333320617676 44.4900016784668 1.909999966621399 44.15999984741211 1.909999966621399 43.70000076293945 L 1.909999966621399 39.41999816894531 C 1.909999966621399 38.959999084472656 2.013333320617676 38.630001068115234 2.2200000286102295 38.43000030517578 C 2.4200000762939453 38.22333526611328 2.75 38.119998931884766 3.2100000381469727 38.119998931884766 L 6.769999980926514 38.119998931884766 L 6.769999980926514 26.020000457763672 L 3.2100000381469727 26.020000457763672 C 2.75 26.020000457763672 2.4200000762939453 25.91666603088379 2.2200000286102295 25.709999084472656 C 2.013333320617676 25.510000228881836 1.909999966621399 25.18000030517578 1.909999966621399 24.719999313354492 L 1.909999966621399 20.360000610351562 C 1.909999966621399 19.906665802001953 2.013333320617676 19.5766658782959 2.2200000286102295 19.3700008392334 C 2.4200000762939453 19.170000076293945 2.75 19.06999969482422 3.2100000381469727 19.06999969482422 L 18.549999237060547 19.06999969482422 C 19.003334045410156 19.06999969482422 19.33333396911621 19.170000076293945 19.540000915527344 19.3700008392334 C 19.746665954589844 19.5766658782959 19.850000381469727 19.906665802001953 19.850000381469727 20.360000610351562 L 19.850000381469727 24.719999313354492 C 19.850000381469727 25.18000030517578 19.746665954589844 25.510000228881836 19.540000915527344 25.709999084472656 C 19.33333396911621 25.91666603088379 19.003334045410156 26.020000457763672 18.549999237060547 26.020000457763672 L 15.0600004196167 26.020000457763672 L 15.0600004196167 38.119998931884766 L 18.549999237060547 38.119998931884766 C 19.003334045410156 38.119998931884766 19.33333396911621 38.22333526611328 19.540000915527344 38.43000030517578 C 19.746665954589844 38.630001068115234 19.850000381469727 38.959999084472656 19.850000381469727 39.41999816894531 L 19.850000381469727 43.70000076293945 C 19.850000381469727 44.15999984741211 19.746665954589844 44.4900016784668 19.540000915527344 44.689998626708984 C 19.33333396911621 44.89666748046875 19.003334045410156 45 18.549999237060547 45 L 3.2100000381469727 45 ZM 30.940046310424805 45 L 25.57004737854004 45 C 25.11671257019043 45 24.786712646484375 44.89666748046875 24.580047607421875 44.689998626708984 C 24.380046844482422 44.4900016784668 24.280046463012695 44.15999984741211 24.280046463012695 43.70000076293945 L 24.280046463012695 20.360000610351562 C 24.280046463012695 19.906665802001953 24.380046844482422 19.5766658782959 24.580047607421875 19.3700008392334 C 24.786712646484375 19.170000076293945 25.11671257019043 19.06999969482422 25.57004737854004 19.06999969482422 L 31.370046615600586 19.06999969482422 C 31.7567138671875 19.06999969482422 32.07671356201172 19.15333366394043 32.330047607421875 19.31999969482422 C 32.57671356201172 19.486665725708008 32.8100471496582 19.763334274291992 33.03004455566406 20.149999618530273 L 36.27004623413086 26.020000457763672 C 36.390045166015625 26.233333587646484 36.493377685546875 26.389999389648438 36.580047607421875 26.489999771118164 C 36.6600456237793 26.58333396911621 36.773380279541016 26.6299991607666 36.920047760009766 26.6299991607666 L 37.240047454833984 26.6299991607666 C 37.38671112060547 26.6299991607666 37.50004577636719 26.58333396911621 37.580047607421875 26.489999771118164 C 37.66671371459961 26.389999389648438 37.77004623413086 26.233333587646484 37.890045166015625 26.020000457763672 L 41.10004425048828 20.149999618530273 C 41.313377380371094 19.763334274291992 41.546714782714844 19.486665725708008 41.800048828125 19.31999969482422 C 42.053382873535156 19.15333366394043 42.37004852294922 19.06999969482422 42.75004577636719 19.06999969482422 L 48.59004592895508 19.06999969482422 C 49.04338073730469 19.06999969482422 49.373382568359375 19.170000076293945 49.580047607421875 19.3700008392334 C 49.78004455566406 19.5766658782959 49.88004684448242 19.906665802001953 49.88004684448242 20.360000610351562 L 49.88004684448242 43.70000076293945 C 49.88004684448242 44.15999984741211 49.78004455566406 44.4900016784668 49.580047607421875 44.689998626708984 C 49.373382568359375 44.89666748046875 49.04338073730469 45 48.59004592895508 45 L 43.04004669189453 45 C 42.58671569824219 45 42.2567138671875 44.89666748046875 42.050048828125 44.689998626708984 C 41.843379974365234 44.4900016784668 41.740047454833984 44.15999984741211 41.740047454833984 43.70000076293945 L 41.740047454833984 31.020000457763672 L 39.62004852294922 34.95000076293945 C 39.406715393066406 35.356666564941406 39.14671325683594 35.650001525878906 38.84004592895508 35.83000183105469 C 38.54004669189453 36.01000213623047 38.16337966918945 36.099998474121094 37.710044860839844 36.099998474121094 L 36.27004623413086 36.099998474121094 C 35.81671142578125 36.099998474121094 35.44004821777344 36.01000213623047 35.140045166015625 35.83000183105469 C 34.83338165283203 35.650001525878906 34.57337951660156 35.356666564941406 34.36004638671875 34.95000076293945 L 32.240047454833984 31.020000457763672 L 32.240047454833984 43.70000076293945 C 32.240047454833984 44.15999984741211 32.13671112060547 44.4900016784668 31.93004608154297 44.689998626708984 C 31.72338104248047 44.89666748046875 31.39337921142578 45 30.940046310424805 45 ZM 68.28814697265625 45 L 56.14814758300781 45 C 55.69481658935547 45 55.36481475830078 44.89666748046875 55.15814971923828 44.689998626708984 C 54.95814895629883 44.4900016784668 54.858150482177734 44.15999984741211 54.858150482177734 43.70000076293945 L 54.858150482177734 20.360000610351562 C 54.858150482177734 19.906665802001953 54.95814895629883 19.5766658782959 55.15814971923828 19.3700008392334 C 55.36481475830078 19.170000076293945 55.69481658935547 19.06999969482422 56.14814758300781 19.06999969482422 L 68.28814697265625 19.06999969482422 C 71.28814697265625 19.06999969482422 73.51481628417969 19.670000076293945 74.96814727783203 20.8700008392334 C 76.42147827148438 22.06999969482422 77.14814758300781 23.91666603088379 77.14814758300781 26.40999984741211 L 77.14814758300781 37.650001525878906 C 77.14814758300781 40.150001525878906 76.42147827148438 42 74.96814727783203 43.20000076293945 C 73.51481628417969 44.400001525878906 71.28814697265625 45 68.28814697265625 45 M 63.02814865112305 25.950000762939453 L 63.02814865112305 38.189998626708984 L 67.31814575195312 38.189998626708984 C 67.8914794921875 38.189998626708984 68.31814575195312 38.04666519165039 68.59814453125 37.76000213623047 C 68.8714828491211 37.47333526611328 69.00814819335938 37.029998779296875 69.00814819335938 36.43000030517578 L 69.00814819335938 27.670000076293945 C 69.00814819335938 27.06999969482422 68.8714828491211 26.633333206176758 68.59814453125 26.360000610351562 C 68.31814575195312 26.086666107177734 67.8914794921875 25.950000762939453 67.31814575195312 25.950000762939453 L 63.02814865112305 25.950000762939453 ZM 96.84654235839844 45 L 83.01654052734375 45 C 82.5632095336914 45 82.23320770263672 44.89666748046875 82.02654266357422 44.689998626708984 C 81.8265380859375 44.4900016784668 81.7265396118164 44.15999984741211 81.7265396118164 43.70000076293945 L 81.7265396118164 20.360000610351562 C 81.7265396118164 19.906665802001953 81.8265380859375 19.5766658782959 82.02654266357422 19.3700008392334 C 82.23320770263672 19.170000076293945 82.5632095336914 19.06999969482422 83.01654052734375 19.06999969482422 L 94.50654602050781 19.06999969482422 C 96.85987854003906 19.06999969482422 98.5998764038086 19.520000457763672 99.7265396118164 20.420000076293945 C 100.85987854003906 21.31999969482422 101.42654418945312 22.706666946411133 101.42654418945312 24.579999923706055 L 101.42654418945312 26.309999465942383 C 101.42654418945312 27.316667556762695 101.25320434570312 28.136667251586914 100.90653991699219 28.770000457763672 C 100.55320739746094 29.40999984741211 100.01654052734375 29.88666534423828 99.29653930664062 30.200000762939453 C 100.83654022216797 30.34000015258789 101.9765396118164 30.866666793823242 102.71653747558594 31.779998779296875 C 103.46321105957031 32.69333267211914 103.83654022216797 34.02666473388672 103.83654022216797 35.779998779296875 L 103.83654022216797 39.09000015258789 C 103.83654022216797 41.11000061035156 103.26654052734375 42.599998474121094 102.12654113769531 43.560001373291016 C 100.98654174804688 44.52000045776367 99.2265396118164 45 96.84654235839844 45 M 89.8265380859375 25.190000534057617 L 89.8265380859375 29.079999923706055 L 92.88654327392578 29.079999923706055 C 93.34654235839844 29.079999923706055 93.68987274169922 28.959999084472656 93.91654205322266 28.719999313354492 C 94.1432113647461 28.479999542236328 94.25654602050781 28.1200008392334 94.25654602050781 27.639999389648438 L 94.25654602050781 26.6299991607666 C 94.25654602050781 26.149999618530273 94.1432113647461 25.790000915527344 93.91654205322266 25.549999237060547 C 93.68987274169922 25.309999465942383 93.34654235839844 25.190000534057617 92.88654327392578 25.190000534057617 L 89.8265380859375 25.190000534057617 M 89.8265380859375 34.630001068115234 L 89.8265380859375 38.880001068115234 L 94.50654602050781 38.880001068115234 C 94.96653747558594 38.880001068115234 95.30987548828125 38.76000213623047 95.53654479980469 38.52000045776367 C 95.7632064819336 38.279998779296875 95.87654113769531 37.91999816894531 95.87654113769531 37.439998626708984 L 95.87654113769531 36.029998779296875 C 95.87654113769531 35.54999923706055 95.7632064819336 35.1966667175293 95.53654479980469 34.970001220703125 C 95.30987548828125 34.74333190917969 94.96653747558594 34.630001068115234 94.50654602050781 34.630001068115234 L 89.8265380859375 34.630001068115234 ZM 133.94232177734375 45 L 117.2323226928711 45 C 116.77899169921875 45 116.44898986816406 44.89666748046875 116.24232482910156 44.689998626708984 C 116.04232025146484 44.4900016784668 115.94232177734375 44.15999984741211 115.94232177734375 43.70000076293945 L 115.94232177734375 20.360000610351562 C 115.94232177734375 19.906665802001953 116.04232025146484 19.5766658782959 116.24232482910156 19.3700008392334 C 116.44898986816406 19.170000076293945 116.77899169921875 19.06999969482422 117.2323226928711 19.06999969482422 L 133.94232177734375 19.06999969482422 C 134.40232849121094 19.06999969482422 134.73565673828125 19.170000076293945 134.94232177734375 19.3700008392334 C 135.14231872558594 19.5766658782959 135.24232482910156 19.906665802001953 135.24232482910156 20.360000610351562 L 135.24232482910156 24.579999923706055 C 135.24232482910156 25.03333282470703 135.14231872558594 25.363332748413086 134.94232177734375 25.56999969482422 C 134.73565673828125 25.770000457763672 134.40232849121094 25.8700008392334 133.94232177734375 25.8700008392334 L 124.00232696533203 25.8700008392334 L 124.00232696533203 28.649999618530273 L 131.03231811523438 28.649999618530273 C 131.48565673828125 28.649999618530273 131.81565856933594 28.75 132.02232360839844 28.950000762939453 C 132.22232055664062 29.156665802001953 132.32232666015625 29.48666763305664 132.32232666015625 29.939998626708984 L 132.32232666015625 33.79999923706055 C 132.32232666015625 34.253334045410156 132.22232055664062 34.58333206176758 132.02232360839844 34.790000915527344 C 131.81565856933594 34.98999786376953 131.48565673828125 35.09000015258789 131.03231811523438 35.09000015258789 L 124.00232696533203 35.09000015258789 L 124.00232696533203 38.189998626708984 L 133.94232177734375 38.189998626708984 C 134.40232849121094 38.189998626708984 134.73565673828125 38.2933349609375 134.94232177734375 38.5 C 135.14231872558594 38.70000076293945 135.24232482910156 39.029998779296875 135.24232482910156 39.48999786376953 L 135.24232482910156 43.70000076293945 C 135.24232482910156 44.15999984741211 135.14231872558594 44.4900016784668 134.94232177734375 44.689998626708984 C 134.73565673828125 44.89666748046875 134.40232849121094 45 133.94232177734375 45 ZM 147.2371826171875 43.70000076293945 C 147.2371826171875 44.15999984741211 147.13385009765625 44.4900016784668 146.92718505859375 44.689998626708984 C 146.72718811035156 44.89666748046875 146.39718627929688 45 145.93719482421875 45 L 140.46719360351562 45 C 140.00718688964844 45 139.67718505859375 44.89666748046875 139.47718811035156 44.689998626708984 C 139.27052307128906 44.4900016784668 139.1671905517578 44.15999984741211 139.1671905517578 43.70000076293945 L 139.1671905517578 39.849998474121094 C 139.1671905517578 38.74333190917969 139.26385498046875 37.913333892822266 139.45718383789062 37.36000061035156 C 139.6505126953125 36.813331604003906 140.01051330566406 36.16666793823242 140.5371856689453 35.41999816894531 L 143.45718383789062 31.489999771118164 L 140.5371856689453 27.56999969482422 C 139.98385620117188 26.823333740234375 139.6171875 26.1733341217041 139.4371795654297 25.6200008392334 C 139.25718688964844 25.066667556762695 139.1671905517578 24.239999771118164 139.1671905517578 23.139999389648438 L 139.1671905517578 20.360000610351562 C 139.1671905517578 19.906665802001953 139.27052307128906 19.5766658782959 139.47718811035156 19.3700008392334 C 139.67718505859375 19.170000076293945 140.00718688964844 19.06999969482422 140.46719360351562 19.06999969482422 L 146.00718688964844 19.06999969482422 C 146.46719360351562 19.06999969482422 146.80052185058594 19.170000076293945 147.00718688964844 19.3700008392334 C 147.20718383789062 19.5766658782959 147.30718994140625 19.906665802001953 147.30718994140625 20.360000610351562 L 147.30718994140625 22.850000381469727 C 147.30718994140625 23.09000015258789 147.32052612304688 23.34000015258789 147.34718322753906 23.600000381469727 C 147.3671875 23.866666793823242 147.46385192871094 24.1200008392334 147.63719177246094 24.360000610351562 L 149.21719360351562 26.6299991607666 C 149.33718872070312 26.823333740234375 149.46385192871094 26.97333335876465 149.59718322753906 27.079999923706055 C 149.7305145263672 27.18666648864746 149.89051818847656 27.239999771118164 150.07717895507812 27.239999771118164 L 150.51718139648438 27.239999771118164 C 150.7105255126953 27.239999771118164 150.8671875 27.18666648864746 150.9871826171875 27.079999923706055 C 151.10719299316406 26.97333335876465 151.2371826171875 26.823333740234375 151.37718200683594 26.6299991607666 L 152.9971923828125 24.360000610351562 C 153.16384887695312 24.1200008392334 153.26052856445312 23.866666793823242 153.2871856689453 23.600000381469727 C 153.31385803222656 23.34000015258789 153.32717895507812 23.09000015258789 153.32717895507812 22.850000381469727 L 153.32717895507812 20.360000610351562 C 153.32717895507812 19.906665802001953 153.42718505859375 19.5766658782959 153.62718200683594 19.3700008392334 C 153.83384704589844 19.170000076293945 154.16384887695312 19.06999969482422 154.6171875 19.06999969482422 L 160.09718322753906 19.06999969482422 C 160.55052185058594 19.06999969482422 160.88052368164062 19.170000076293945 161.08718872070312 19.3700008392334 C 161.2871856689453 19.5766658782959 161.38719177246094 19.906665802001953 161.38719177246094 20.360000610351562 L 161.38719177246094 23.139999389648438 C 161.38719177246094 24.239999771118164 161.29385375976562 25.066667556762695 161.10719299316406 25.6200008392334 C 160.91384887695312 26.1733341217041 160.55384826660156 26.823333740234375 160.02719116210938 27.56999969482422 L 157.10719299316406 31.529998779296875 L 160.02719116210938 35.41999816894531 C 160.5738525390625 36.16666793823242 160.93719482421875 36.813331604003906 161.1171875 37.36000061035156 C 161.29718017578125 37.913333892822266 161.38719177246094 38.74333190917969 161.38719177246094 39.849998474121094 L 161.38719177246094 43.70000076293945 C 161.38719177246094 44.15999984741211 161.2871856689453 44.4900016784668 161.08718872070312 44.689998626708984 C 160.88052368164062 44.89666748046875 160.55052185058594 45 160.09718322753906 45 L 154.6171875 45 C 154.16384887695312 45 153.83384704589844 44.89666748046875 153.62718200683594 44.689998626708984 C 153.42718505859375 44.4900016784668 153.32717895507812 44.15999984741211 153.32717895507812 43.70000076293945 L 153.32717895507812 40.13999938964844 C 153.32717895507812 39.900001525878906 153.31385803222656 39.64666748046875 153.2871856689453 39.380001068115234 C 153.26052856445312 39.11333465576172 153.16384887695312 38.86000061035156 152.9971923828125 38.619998931884766 L 151.4171905517578 36.36000061035156 C 151.27052307128906 36.13999938964844 151.13719177246094 35.983333587646484 151.01718139648438 35.88999938964844 C 150.89718627929688 35.790000915527344 150.7405242919922 35.73999786376953 150.54718017578125 35.73999786376953 L 150.04718017578125 35.73999786376953 C 149.85385131835938 35.73999786376953 149.6971893310547 35.790000915527344 149.57717895507812 35.88999938964844 C 149.45718383789062 35.983333587646484 149.3238525390625 36.13999938964844 149.17718505859375 36.36000061035156 L 147.55718994140625 38.619998931884766 C 147.39051818847656 38.86000061035156 147.29718017578125 39.11333465576172 147.27719116210938 39.380001068115234 C 147.25051879882812 39.64666748046875 147.2371826171875 39.900001525878906 147.2371826171875 40.13999938964844 L 147.2371826171875 43.70000076293945 ZM 172.9114227294922 45 L 167.3314208984375 45 C 166.87808227539062 45 166.548095703125 44.89666748046875 166.34141540527344 44.689998626708984 C 166.14141845703125 44.4900016784668 166.0414276123047 44.15999984741211 166.0414276123047 43.70000076293945 L 166.0414276123047 20.360000610351562 C 166.0414276123047 19.906665802001953 166.14141845703125 19.5766658782959 166.34141540527344 19.3700008392334 C 166.548095703125 19.170000076293945 166.87808227539062 19.06999969482422 167.3314208984375 19.06999969482422 L 178.35142517089844 19.06999969482422 C 181.6180877685547 19.06999969482422 183.85142517089844 19.71666717529297 185.05142211914062 21.010000228881836 C 186.2514190673828 22.309999465942383 186.85142517089844 24.003334045410156 186.85142517089844 26.09000015258789 L 186.85142517089844 30.700000762939453 C 186.85142517089844 32.78666687011719 186.2514190673828 34.47999954223633 185.05142211914062 35.779998779296875 C 183.85142517089844 37.073333740234375 181.6180877685547 37.720001220703125 178.35142517089844 37.720001220703125 L 174.21142578125 37.720001220703125 L 174.21142578125 43.70000076293945 C 174.21142578125 44.15999984741211 174.11141967773438 44.4900016784668 173.9114227294922 44.689998626708984 C 173.7047576904297 44.89666748046875 173.37142944335938 45 172.9114227294922 45 M 174.14141845703125 25.799999237060547 L 174.14141845703125 31.239999771118164 L 177.3814239501953 31.239999771118164 C 178.0814208984375 31.239999771118164 178.5380859375 31.060001373291016 178.7514190673828 30.700000762939453 C 178.96475219726562 30.34000015258789 179.07142639160156 29.933334350585938 179.07142639160156 29.479999542236328 L 179.07142639160156 27.56999969482422 C 179.07142639160156 27.110000610351562 178.96475219726562 26.700000762939453 178.7514190673828 26.34000015258789 C 178.5380859375 25.979999542236328 178.0814208984375 25.799999237060547 177.3814239501953 25.799999237060547 L 174.14141845703125 25.799999237060547 ZM 210.2347412109375 45 L 191.89474487304688 45 C 191.44140625 45 191.11141967773438 44.89666748046875 190.9047393798828 44.689998626708984 C 190.70474243164062 44.4900016784668 190.60475158691406 44.15999984741211 190.60475158691406 43.70000076293945 L 190.60475158691406 20.360000610351562 C 190.60475158691406 19.906665802001953 190.70474243164062 19.5766658782959 190.9047393798828 19.3700008392334 C 191.11141967773438 19.170000076293945 191.44140625 19.06999969482422 191.89474487304688 19.06999969482422 L 197.47474670410156 19.06999969482422 C 197.93475341796875 19.06999969482422 198.26808166503906 19.170000076293945 198.47474670410156 19.3700008392334 C 198.67474365234375 19.5766658782959 198.77474975585938 19.906665802001953 198.77474975585938 20.360000610351562 L 198.77474975585938 38.189998626708984 L 203.71475219726562 38.189998626708984 L 203.71475219726562 32.36000061035156 C 203.71475219726562 31.899999618530273 203.8147430419922 31.56999969482422 204.01473999023438 31.369998931884766 C 204.22140502929688 31.163333892822266 204.55140686035156 31.060001373291016 205.00474548339844 31.060001373291016 L 210.2347412109375 31.060001373291016 C 210.68807983398438 31.060001373291016 211.01808166503906 31.163333892822266 211.22474670410156 31.369998931884766 C 211.42474365234375 31.56999969482422 211.52474975585938 31.899999618530273 211.52474975585938 32.36000061035156 L 211.52474975585938 43.70000076293945 C 211.52474975585938 44.15999984741211 211.42474365234375 44.4900016784668 211.22474670410156 44.689998626708984 C 211.01808166503906 44.89666748046875 210.68807983398438 45 210.2347412109375 45 ZM 237.60629272460938 38.189998626708984 C 237.60629272460938 39.29666519165039 237.4429473876953 40.29999923706055 237.1162872314453 41.20000076293945 C 236.78961181640625 42.099998474121094 236.21295166015625 42.869998931884766 235.38629150390625 43.5099983215332 C 234.5596160888672 44.143333435058594 233.41961669921875 44.63999938964844 231.96627807617188 45 C 230.51295471191406 45.36000061035156 228.66961669921875 45.540000915527344 226.436279296875 45.540000915527344 C 224.2029571533203 45.540000915527344 222.3529510498047 45.36000061035156 220.88629150390625 45 C 219.42628479003906 44.63999938964844 218.2796173095703 44.143333435058594 217.4462890625 43.5099983215332 C 216.61961364746094 42.869998931884766 216.04627990722656 42.099998474121094 215.72628784179688 41.20000076293945 C 215.3996124267578 40.29999923706055 215.2362823486328 39.29666519165039 215.2362823486328 38.189998626708984 L 215.2362823486328 25.90999984741211 C 215.2362823486328 24.803333282470703 215.3996124267578 23.799999237060547 215.72628784179688 22.899999618530273 C 216.04627990722656 22 216.61961364746094 21.226667404174805 217.4462890625 20.579999923706055 C 218.2796173095703 19.933332443237305 219.42628479003906 19.43000030517578 220.88629150390625 19.06999969482422 C 222.3529510498047 18.709999084472656 224.2029571533203 18.530000686645508 226.436279296875 18.530000686645508 C 228.66961669921875 18.530000686645508 230.51295471191406 18.709999084472656 231.96627807617188 19.06999969482422 C 233.41961669921875 19.43000030517578 234.5596160888672 19.933332443237305 235.38629150390625 20.579999923706055 C 236.21295166015625 21.226667404174805 236.78961181640625 22 237.1162872314453 22.899999618530273 C 237.4429473876953 23.799999237060547 237.60629272460938 24.803333282470703 237.60629272460938 25.90999984741211 L 237.60629272460938 38.189998626708984 M 223.41629028320312 36.900001525878906 C 223.41629028320312 37.380001068115234 223.59628295898438 37.779998779296875 223.95628356933594 38.099998474121094 C 224.3162841796875 38.426666259765625 225.14295959472656 38.59000015258789 226.436279296875 38.59000015258789 C 227.7362823486328 38.59000015258789 228.5662841796875 38.426666259765625 228.92628479003906 38.099998474121094 C 229.28628540039062 37.779998779296875 229.46627807617188 37.380001068115234 229.46627807617188 36.900001525878906 L 229.46627807617188 27.209999084472656 C 229.46627807617188 26.75 229.28628540039062 26.360000610351562 228.92628479003906 26.040000915527344 C 228.5662841796875 25.713333129882812 227.7362823486328 25.549999237060547 226.436279296875 25.549999237060547 C 225.14295959472656 25.549999237060547 224.3162841796875 25.713333129882812 223.95628356933594 26.040000915527344 C 223.59628295898438 26.360000610351562 223.41629028320312 26.75 223.41629028320312 27.209999084472656 L 223.41629028320312 36.900001525878906 ZM 250.32054138183594 25.549999237060547 L 250.32054138183594 30.15999984741211 L 253.02053833007812 30.15999984741211 C 253.64053344726562 30.15999984741211 254.06053161621094 29.996665954589844 254.28053283691406 29.670000076293945 C 254.49386596679688 29.350000381469727 254.6005401611328 28.950000762939453 254.6005401611328 28.469999313354492 L 254.6005401611328 27.239999771118164 C 254.6005401611328 26.760000228881836 254.49386596679688 26.360000610351562 254.28053283691406 26.040000915527344 C 254.06053161621094 25.713333129882812 253.64053344726562 25.549999237060547 253.02053833007812 25.549999237060547 L 250.32054138183594 25.549999237060547 M 249.02053833007812 45 L 243.4705352783203 45 C 243.01719665527344 45 242.6872100830078 44.89666748046875 242.48052978515625 44.689998626708984 C 242.28053283691406 44.4900016784668 242.1805419921875 44.15999984741211 242.1805419921875 43.70000076293945 L 242.1805419921875 20.360000610351562 C 242.1805419921875 19.906665802001953 242.28053283691406 19.5766658782959 242.48052978515625 19.3700008392334 C 242.6872100830078 19.170000076293945 243.01719665527344 19.06999969482422 243.4705352783203 19.06999969482422 L 255.4705352783203 19.06999969482422 C 258.1571960449219 19.06999969482422 260.0105285644531 19.626667022705078 261.0305480957031 20.739999771118164 C 262.050537109375 21.860000610351562 262.560546875 23.30666732788086 262.560546875 25.079999923706055 L 262.560546875 26.739999771118164 C 262.560546875 27.746665954589844 262.4105224609375 28.60333251953125 262.11053466796875 29.310001373291016 C 261.810546875 30.023334503173828 261.29052734375 30.53333282470703 260.550537109375 30.84000015258789 C 261.8438720703125 30.98666763305664 262.89385986328125 31.516666412353516 263.7005310058594 32.43000030517578 C 264.50054931640625 33.34333419799805 264.9005432128906 34.55666732788086 264.9005432128906 36.06999969482422 L 264.9005432128906 43.70000076293945 C 264.9005432128906 44.15999984741211 264.800537109375 44.4900016784668 264.60052490234375 44.689998626708984 C 264.39385986328125 44.89666748046875 264.0638732910156 45 263.61053466796875 45 L 258.0205383300781 45 C 257.56719970703125 45 257.2372131347656 44.89666748046875 257.0305480957031 44.689998626708984 C 256.8305358886719 44.4900016784668 256.73052978515625 44.15999984741211 256.73052978515625 43.70000076293945 L 256.73052978515625 38.189998626708984 C 256.73052978515625 37.663333892822266 256.627197265625 37.27333450317383 256.4205322265625 37.02000045776367 C 256.2138671875 36.766666412353516 255.86053466796875 36.63999938964844 255.36053466796875 36.63999938964844 L 250.32054138183594 36.63999938964844 L 250.32054138183594 43.70000076293945 C 250.32054138183594 44.15999984741211 250.2172088623047 44.4900016784668 250.01052856445312 44.689998626708984 C 249.80386352539062 44.89666748046875 249.473876953125 45 249.02053833007812 45 ZM 286.94085693359375 45 L 270.2308654785156 45 C 269.77752685546875 45 269.4475402832031 44.89666748046875 269.2408752441406 44.689998626708984 C 269.0408630371094 44.4900016784668 268.94085693359375 44.15999984741211 268.94085693359375 43.70000076293945 L 268.94085693359375 20.360000610351562 C 268.94085693359375 19.906665802001953 269.0408630371094 19.5766658782959 269.2408752441406 19.3700008392334 C 269.4475402832031 19.170000076293945 269.77752685546875 19.06999969482422 270.2308654785156 19.06999969482422 L 286.94085693359375 19.06999969482422 C 287.40087890625 19.06999969482422 287.73419189453125 19.170000076293945 287.94085693359375 19.3700008392334 C 288.140869140625 19.5766658782959 288.2408752441406 19.906665802001953 288.2408752441406 20.360000610351562 L 288.2408752441406 24.579999923706055 C 288.2408752441406 25.03333282470703 288.140869140625 25.363332748413086 287.94085693359375 25.56999969482422 C 287.73419189453125 25.770000457763672 287.40087890625 25.8700008392334 286.94085693359375 25.8700008392334 L 277.0008544921875 25.8700008392334 L 277.0008544921875 28.649999618530273 L 284.0308532714844 28.649999618530273 C 284.48419189453125 28.649999618530273 284.814208984375 28.75 285.0208740234375 28.950000762939453 C 285.2208557128906 29.156665802001953 285.32086181640625 29.48666763305664 285.32086181640625 29.939998626708984 L 285.32086181640625 33.79999923706055 C 285.32086181640625 34.253334045410156 285.2208557128906 34.58333206176758 285.0208740234375 34.790000915527344 C 284.814208984375 34.98999786376953 284.48419189453125 35.09000015258789 284.0308532714844 35.09000015258789 L 277.0008544921875 35.09000015258789 L 277.0008544921875 38.189998626708984 L 286.94085693359375 38.189998626708984 C 287.40087890625 38.189998626708984 287.73419189453125 38.2933349609375 287.94085693359375 38.5 C 288.140869140625 38.70000076293945 288.2408752441406 39.029998779296875 288.2408752441406 39.48999786376953 L 288.2408752441406 43.70000076293945 C 288.2408752441406 44.15999984741211 288.140869140625 44.4900016784668 287.94085693359375 44.689998626708984 C 287.73419189453125 44.89666748046875 287.40087890625 45 286.94085693359375 45 ZM 300.6357116699219 25.549999237060547 L 300.6357116699219 30.15999984741211 L 303.335693359375 30.15999984741211 C 303.9557189941406 30.15999984741211 304.3757019042969 29.996665954589844 304.595703125 29.670000076293945 C 304.8090515136719 29.350000381469727 304.91571044921875 28.950000762939453 304.91571044921875 28.469999313354492 L 304.91571044921875 27.239999771118164 C 304.91571044921875 26.760000228881836 304.8090515136719 26.360000610351562 304.595703125 26.040000915527344 C 304.3757019042969 25.713333129882812 303.9557189941406 25.549999237060547 303.335693359375 25.549999237060547 L 300.6357116699219 25.549999237060547 M 299.335693359375 45 L 293.78570556640625 45 C 293.3323669433594 45 293.00238037109375 44.89666748046875 292.79571533203125 44.689998626708984 C 292.595703125 44.4900016784668 292.4956970214844 44.15999984741211 292.4956970214844 43.70000076293945 L 292.4956970214844 20.360000610351562 C 292.4956970214844 19.906665802001953 292.595703125 19.5766658782959 292.79571533203125 19.3700008392334 C 293.00238037109375 19.170000076293945 293.3323669433594 19.06999969482422 293.78570556640625 19.06999969482422 L 305.78570556640625 19.06999969482422 C 308.4723815917969 19.06999969482422 310.3257141113281 19.626667022705078 311.345703125 20.739999771118164 C 312.36572265625 21.860000610351562 312.8757019042969 23.30666732788086 312.8757019042969 25.079999923706055 L 312.8757019042969 26.739999771118164 C 312.8757019042969 27.746665954589844 312.7257080078125 28.60333251953125 312.42572021484375 29.310001373291016 C 312.1257019042969 30.023334503173828 311.605712890625 30.53333282470703 310.86572265625 30.84000015258789 C 312.1590270996094 30.98666763305664 313.20904541015625 31.516666412353516 314.0157165527344 32.43000030517578 C 314.8157043457031 33.34333419799805 315.2156982421875 34.55666732788086 315.2156982421875 36.06999969482422 L 315.2156982421875 43.70000076293945 C 315.2156982421875 44.15999984741211 315.11572265625 44.4900016784668 314.91571044921875 44.689998626708984 C 314.70904541015625 44.89666748046875 314.3790283203125 45 313.92572021484375 45 L 308.335693359375 45 C 307.88238525390625 45 307.5523681640625 44.89666748046875 307.345703125 44.689998626708984 C 307.14569091796875 44.4900016784668 307.04571533203125 44.15999984741211 307.04571533203125 43.70000076293945 L 307.04571533203125 38.189998626708984 C 307.04571533203125 37.663333892822266 306.9423828125 37.27333450317383 306.7357177734375 37.02000045776367 C 306.529052734375 36.766666412353516 306.17572021484375 36.63999938964844 305.67572021484375 36.63999938964844 L 300.6357116699219 36.63999938964844 L 300.6357116699219 43.70000076293945 C 300.6357116699219 44.15999984741211 300.5323791503906 44.4900016784668 300.3257141113281 44.689998626708984 C 300.1190490722656 44.89666748046875 299.7890319824219 45 299.335693359375 45 Z" transform="matrix(0.7892269492149353, 0, 0, 0.8728265166282654, -0.058899421244859695, 12.226749420166016)" style="fill: rgb(235, 51, 19); white-space: pre; color: rgb(51, 51, 51); stroke: rgb(51, 29, 53); paint-order: stroke; stroke-width: 1; fill-opacity: 1;"/></svg>